{"title":"The Wind Rises 2013 BRrip 1080P x264 MP4 - Ofek","uid":10501788,"size":2905770589,"categoryP":"video","categoryS":"hd___movies","magnet":"?xt=urn:btih:fee373d7643ef41d7fd3c5b394e242bffa25a98c&amp;dn=The+Wind+Rises+2013+BRrip+1080P+x264+MP4+-+Ofek&amp;tr=udp%3A%2F%2Ftracker.openbittorrent.com%3A80&amp;tr=udp%3A%2F%2Fopen.demonii.com%3A1337&amp;tr=udp%3A%2F%2Ftracker.coppersurfer.tk%3A6969&amp;tr=udp%3A%2F%2Fexodus.desync.com%3A6969","seeders":7,"leechers":0,"uploader":"realOfek","files":2,"time":1404712444,"description":"Please leave feedback!\n\nSource: Bluray (Special thanks to: PublicHD, TryMeS, KRaLiMaRKo, IMKNONOBODY (formerly BOZX), Grym a.k.a. vonRicht on TPB (for extras only), CHD, CHDBits, HDCLUB, CtrlHD, HDWinG, HighCode, FraMeSToR, DVDSEED, R2D2, EbP, HDChina, LAZERS, BLUEBIRD)\n\nSubtitles were done myself, and are perfect.\n\nGeneral\nFormat                                   : MPEG-4\nFormat profile                           : Base Media\nCodec ID                                 : isom\nFile size                                : 2.71 GiB\nDuration                                 : 2h 6mn\nOverall bit rate mode                    : Variable\nOverall bit rate                         : 3 062 Kbps\nEncoded date                             : UTC 2014-06-29 03:11:38\nTagged date                              : UTC 2014-06-29 03:11:38\n\nVideo\nID                                       : 1\nFormat                                   : AVC\nFormat/Info                              : Advanced Video Codec\nFormat profile                           : &lt;a class=&quot;__cf_email__&quot; href=&quot;/cdn-cgi/l/email-protection&quot; data-cfemail=&quot;d59dbcb2bd9599e1fbe5&quot;&gt;[email&amp;#160;protected]&lt;/a&gt;&lt;script cf-hash='f9e31' type=&quot;text/javascript&quot;&gt;\n/* &lt;![CDATA[ */!function(){try{var t=&quot;currentScript&quot;in document?document.currentScript:function(){for(var t=document.getElementsByTagName(&quot;script&quot;),e=t.length;e--;)if(t[e].getAttribute(&quot;cf-hash&quot;))return t[e]}();if(t&amp;&amp;t.previousSibling){var e,r,n,i,c=t.previousSibling,a=c.getAttribute(&quot;data-cfemail&quot;);if(a){for(e=&quot;&quot;,r=parseInt(a.substr(0,2),16),n=2;a.length-n;n+=2)i=parseInt(a.substr(n,2),16)^r,e+=String.fromCharCode(i);e=document.createTextNode(e),c.parentNode.replaceChild(e,c)}}}catch(u){}}();/* ]]&gt; */&lt;/script&gt;\nFormat settings, CABAC                   : Yes\nFormat settings, ReFrames                : 4 frames\nCodec ID                                 : avc1\nCodec ID/Info                            : Advanced Video Coding\nDuration                                 : 2h 6mn\nBit rate                                 : 2 834 Kbps\nMaximum bit rate                         : 23.5 Mbps\nWidth                                    : 1 920 pixels\nHeight                                   : 1 040 pixels\nDisplay aspect ratio                     : 1.85:1\nFrame rate mode                          : Constant\nFrame rate                               : 23.976 fps\nColor space                              : YUV\nChroma subsampling                       : 4:2:0\nBit depth                                : 8 bits\nScan type                                : Progressive\nBits/(Pixel*Frame)                       : 0.059\nStream size                              : 2.50 GiB (93%)\nTitle                                    : h264:lang=&lt;a class=&quot;__cf_email__&quot; href=&quot;/cdn-cgi/l/email-protection&quot; data-cfemail=&quot;deb4bf9e998e9f9deef0ebf0eff39a9b88f3acbba8ebececeb&quot;&gt;[email&amp;#160;protected]&lt;/a&gt;&lt;script cf-hash='f9e31' type=&quot;text/javascript&quot;&gt;\n/* &lt;![CDATA[ */!function(){try{var t=&quot;currentScript&quot;in document?document.currentScript:function(){for(var t=document.getElementsByTagName(&quot;script&quot;),e=t.length;e--;)if(t[e].getAttribute(&quot;cf-hash&quot;))return t[e]}();if(t&amp;&amp;t.previousSibling){var e,r,n,i,c=t.previousSibling,a=c.getAttribute(&quot;data-cfemail&quot;);if(a){for(e=&quot;&quot;,r=parseInt(a.substr(0,2),16),n=2;a.length-n;n+=2)i=parseInt(a.substr(n,2),16)^r,e+=String.fromCharCode(i);e=document.createTextNode(e),c.parentNode.replaceChild(e,c)}}}catch(u){}}();/* ]]&gt; */&lt;/script&gt;\nWriting library                          : x264 core 142 r2431 ac76440\nEncoding settings                        : cabac=1 / ref=4 / deblock=1:1:1 / analyse=0x3:0x133 / me=umh / subme=10 / psy=1 / psy_rd=0.40:0.00 / mixed_ref=1 / me_range=24 / chroma_me=1 / trellis=2 / 8x8dct=1 / cqm=0 / deadzone=21,11 / fast_pskip=1 / chroma_qp_offset=-2 / threads=12 / lookahead_threads=1 / sliced_threads=0 / nr=0 / decimate=1 / interlaced=0 / bluray_compat=0 / constrained_intra=0 / bframes=3 / b_pyramid=2 / b_adapt=2 / b_bias=0 / direct=3 / weightb=1 / open_gop=0 / weightp=2 / keyint=250 / keyint_min=23 / scenecut=40 / intra_refresh=0 / rc_lookahead=60 / rc=crf / mbtree=1 / crf=20.0 / qcomp=0.60 / qpmin=0 / qpmax=69 / qpstep=4 / ip_ratio=1.40 / aq=1:0.60\nLanguage                                 : Japanese\nEncoded date                             : UTC 2014-06-29 03:11:38\nTagged date                              : UTC 2014-06-29 03:13:42\n\nAudio #1\nID                                       : 2\nFormat                                   : AAC\nFormat/Info                              : Advanced Audio Codec\nFormat profile                           : LC\nCodec ID                                 : 40\nDuration                                 : 2h 6mn\nBit rate mode                            : Variable\nBit rate                                 : 110 Kbps\nMaximum bit rate                         : 138 Kbps\nChannel(s)                               : 2 channels\nChannel positions                        : Front: L R\nSampling rate                            : 48.0 KHz\nCompression mode                         : Lossy\nStream size                              : 99.7 MiB (4%)\nLanguage                                 : English\nEncoded date                             : UTC 2014-06-20 22:11:39\nTagged date                              : UTC 2014-06-29 03:13:42\n\nAudio #2\nID                                       : 3\nFormat                                   : AAC\nFormat/Info                              : Advanced Audio Codec\nFormat profile                           : LC\nCodec ID                                 : 40\nDuration                                 : 2h 6mn\nBit rate mode                            : Variable\nBit rate                                 : 112 Kbps\nMaximum bit rate                         : 132 Kbps\nChannel(s)                               : 2 channels\nChannel positions                        : Front: L R\nSampling rate                            : 48.0 KHz\nCompression mode                         : Lossy\nStream size                              : 101 MiB (4%)\nLanguage                                 : Japanese\nEncoded date                             : UTC 2014-06-20 23:37:33\nTagged date                              : UTC 2014-06-29 03:13:42\n\n\n\n\n\n\nEnjoy!","torrent":{"xt":"urn:btih:fee373d7643ef41d7fd3c5b394e242bffa25a98c","amp;dn":"The+Wind+Rises+2013+BRrip+1080P+x264+MP4+-+Ofek","amp;tr":["udp%3A%2F%2Ftracker.openbittorrent.com%3A80","udp%3A%2F%2Fopen.demonii.com%3A1337","udp%3A%2F%2Ftracker.coppersurfer.tk%3A6969","udp%3A%2F%2Fexodus.desync.com%3A6969"],"infoHash":"fee373d7643ef41d7fd3c5b394e242bffa25a98c","infoHashBuffer":{"type":"Buffer","data":[254,227,115,215,100,62,244,29,127,211,197,179,148,226,66,191,250,37,169,140]},"announce":[],"urlList":[]}}